<svg id="Layer_1" data-name="Layer 1" xmlns="http://www.w3.org/2000/svg" viewBox="0 0 6301.16 6882.06"><path d="M10237,2633.29a6.43,6.43,0,0,0-7.86-4.56L4960.94,4027.88a113,113,0,0,0-80.2,138.2L5666.59,7125c22.58,85,129.38,112.76,190.48,49.47l4378.32-4535A6.44,6.44,0,0,0,10237,2633.29Z" transform="translate(-3936.04 -2628.51)"/><path d="M8495.44,5002.59c-22.76-85-129.63-112.48-190.59-49.06L3941,9493.61a17.83,17.83,0,0,0-4.37,17L9207.92,8098.14a113,113,0,0,0,79.9-138.38Z" transform="translate(-3936.04 -2628.51)"/></svg>