<svg id="Layer_1" data-name="Layer 1" xmlns="http://www.w3.org/2000/svg" viewBox="0 0 13476.26 13476.26"><defs><style>.cls-1{fill:#5cc4e5;stroke:#fff;stroke-miterlimit:10;stroke-width:300px;}.cls-2{fill:#fff;}</style></defs><circle class="cls-1" cx="6738.13" cy="6738.13" r="6588.13"/><path class="cls-2" d="M12638,1352.68a11.13,11.13,0,0,0-13.61-7.9L3504.29,3767c-104.4,27.73-166.56,134.85-138.83,239.25L4725.89,9128.6c39.09,147.19,224,195.21,329.76,85.65l7579.64-7851A11.11,11.11,0,0,0,12638,1352.68Z" transform="translate(-348.48 -348.48)"/><path class="cls-2" d="M9623.14,5454.35c-39.42-147.11-224.41-194.72-329.95-84.92L1738.61,13229.1a30.83,30.83,0,0,0-7.56,29.36l9125.51-2445.17c104.35-28,166.27-135.21,138.31-239.56Z" transform="translate(-348.48 -348.48)"/></svg>